# xmcd
#
# Track frame offsets: 
#        150
#        28583
#        53628
#        77638
#        104933
#        126985
#        146403
#        166208
#        189998
#        214348
#
# Disc length: 3220 seconds
#
# Revision: 0
# Processed by: cddbd v1.5.2PL0 Copyright (c) Steve Scherf et al.
# Submitted via: ExactAudioCopy v1.0b3
#
DISCID=8c0c920a
DTITLE=Huong Lan - Con Thuong Goc Bep Chai He
DYEAR=1994
DGENRE=
TTITLE0=Con thuong goc bep chai he
TTITLE1=Tinh trong nhu da
TTITLE2=Chi chung do thoi
TTITLE3=Gia tu
TTITLE4=Rong reu
TTITLE5=Que huong
TTITLE6=Thu tinh cuoi mua thu
TTITLE7=Mot minh
TTITLE8=Qua nhip cau tre
TTITLE9=Hoi tuong
EXTD=
EXTT0=
EXTT1=
EXTT2=
EXTT3=
EXTT4=
EXTT5=
EXTT6=
EXTT7=
EXTT8=
EXTT9=
PLAYORDER=
